<?xml version="1.0" standalone="no"?>
<svg version="1.1" id="Layer_1" xmlns="http://www.w3.org/2000/svg" xmlns:xlink="http://www.w3.org/1999/xlink" x="0px" y="0px" viewBox="0 0 595.28 595.28" enable-background="new 0 0 595.28 595.28" xml:space="preserve">
<g>
	<path id="color_x5F_15" fill="#2276BC" d="M348.886,348.873c15.884-0.395,34.446-2.555,34.446-2.555l1.541,2.555H348.886z M395.189,339.476
		c3.542,7.545,7.66,17.631,10.96,26.017l14.507-8.828L395.189,339.476z M356.942,327.431v-3.587h15.086l-20.999-14.173
		c0.918,6.773,3.648,16.795,3.96,17.932c4.97-0.107,14.681-0.268,22.464-0.097l-0.111-0.075H356.942z M386.099,350.906v26.787
		l-87.673,53.348l-87.673-53.348v-28.82h129.3c-6.392-0.202-11.369-0.93-12.92-2.555c-5.62-5.887-2.881-17.93-2.881-17.93
		l0.098-0.003c0.283-1.672,3.688-21.95,4.087-31.751c-24.525-9.806-52.751-7.121-75.246,8.062l-76.996,51.968l122.23,74.376
		l99.49-60.539L386.099,350.906z"></path>
	<path id="color_x5F_14" fill="#7ECDC9" d="M126.111,147.716c0.39,0.404,0.379,1.048-0.025,1.438c-1.799,1.737-3.572,3.535-5.272,5.343
		c-0.2,0.213-0.47,0.32-0.741,0.32c-0.25,0-0.5-0.091-0.696-0.276c-0.409-0.385-0.429-1.028-0.045-1.438
		c1.722-1.832,3.519-3.653,5.341-5.413C125.077,147.301,125.721,147.312,126.111,147.716z M161.336,120.806
		c-2.221,1.232-4.435,2.518-6.578,3.821c-0.48,0.292-0.632,0.917-0.341,1.397c0.192,0.315,0.527,0.489,0.87,0.489
		c0.18,0,0.362-0.048,0.527-0.148c2.12-1.289,4.31-2.561,6.508-3.78c0.491-0.272,0.669-0.892,0.396-1.383
		C162.446,120.711,161.827,120.533,161.336,120.806z M136.07,137.673c-1.978,1.583-3.935,3.224-5.818,4.879
		c-0.422,0.371-0.463,1.013-0.093,1.435c0.201,0.229,0.482,0.346,0.764,0.346c0.238,0,0.478-0.083,0.671-0.253
		c1.859-1.634,3.793-3.255,5.746-4.819c0.439-0.351,0.51-0.991,0.159-1.429C137.149,137.393,136.508,137.322,136.07,137.673z
		 M148.342,128.71c-2.113,1.408-4.211,2.871-6.235,4.349c-0.454,0.331-0.553,0.968-0.222,1.421c0.199,0.273,0.509,0.417,0.822,0.417
		c0.208,0,0.418-0.064,0.599-0.196c2.001-1.461,4.075-2.907,6.164-4.299c0.467-0.311,0.594-0.943,0.283-1.41
		C149.441,128.525,148.809,128.398,148.342,128.71z M174.911,113.939c-2.308,1.062-4.614,2.174-6.853,3.306
		c-0.501,0.253-0.702,0.865-0.449,1.367c0.179,0.354,0.537,0.558,0.909,0.558c0.154,0,0.311-0.035,0.458-0.11
		c2.217-1.12,4.499-2.222,6.785-3.273c0.51-0.235,0.734-0.839,0.499-1.349C176.026,113.927,175.422,113.704,174.911,113.939z
		 M203.333,103.158c-2.426,0.743-4.86,1.53-7.232,2.34c-0.531,0.181-0.815,0.759-0.634,1.291c0.144,0.423,0.539,0.689,0.963,0.689
		c0.109,0,0.22-0.018,0.329-0.055c2.352-0.803,4.765-1.583,7.171-2.32c0.537-0.165,0.839-0.733,0.675-1.27
		C204.439,103.296,203.87,102.994,203.333,103.158z M262.896,92.183c-2.519,0.187-5.063,0.409-7.563,0.661
		c-0.559,0.056-0.966,0.555-0.91,1.114c0.053,0.524,0.495,0.915,1.011,0.915c0.034,0,0.068-0.002,0.103-0.005
		c2.482-0.25,5.009-0.47,7.51-0.656c0.56-0.042,0.981-0.529,0.939-1.09C263.945,92.561,263.457,92.138,262.896,92.183z
		 M247.812,93.699c-2.502,0.318-5.026,0.673-7.502,1.055c-0.555,0.086-0.936,0.605-0.85,1.16c0.078,0.503,0.511,0.862,1.004,0.862
		c0.052,0,0.104-0.004,0.156-0.012c2.458-0.379,4.964-0.732,7.449-1.048c0.557-0.071,0.951-0.58,0.881-1.137
		C248.878,94.023,248.369,93.63,247.812,93.699z M217.987,99.153c-2.46,0.594-4.935,1.231-7.355,1.892
		c-0.542,0.148-0.861,0.707-0.713,1.249c0.124,0.452,0.533,0.749,0.981,0.749c0.089,0,0.179-0.012,0.269-0.036
		c2.401-0.656,4.856-1.287,7.297-1.877c0.546-0.132,0.882-0.681,0.75-1.227C219.083,99.357,218.533,99.022,217.987,99.153z
		 M232.833,96.013c-2.486,0.453-4.99,0.946-7.443,1.465c-0.55,0.116-0.901,0.656-0.785,1.205c0.101,0.479,0.524,0.807,0.994,0.807
		c0.07,0,0.14-0.007,0.211-0.022c2.435-0.515,4.921-1.004,7.388-1.454c0.553-0.101,0.919-0.63,0.818-1.183
		C233.916,96.278,233.386,95.911,232.833,96.013z M83.63,220.212c0.089,0.024,0.178,0.035,0.265,0.035
		c0.449,0,0.859-0.299,0.981-0.753c0.652-2.42,1.363-4.843,2.115-7.202c0.171-0.535-0.125-1.107-0.66-1.278
		c-0.536-0.17-1.107,0.125-1.278,0.66c-0.761,2.389-1.482,4.842-2.141,7.291C82.766,219.508,83.088,220.066,83.63,220.212z
		 M450.153,185.983c0.1,0.48,0.523,0.81,0.995,0.81c0.069,0,0.138-0.007,0.208-0.021c0.55-0.114,0.903-0.653,0.789-1.203
		c-0.516-2.485-1.162-4.976-1.918-7.405c-0.167-0.536-0.737-0.835-1.274-0.669c-0.536,0.167-0.836,0.737-0.669,1.274
		C449.021,181.135,449.65,183.562,450.153,185.983z M88.13,205.797c0.117,0.043,0.236,0.064,0.354,0.064
		c0.413,0,0.801-0.254,0.954-0.663c0.871-2.344,1.806-4.689,2.78-6.969c0.221-0.516-0.019-1.114-0.536-1.335
		c-0.516-0.221-1.114,0.019-1.335,0.536c-0.987,2.31-1.935,4.685-2.817,7.06C87.335,205.016,87.604,205.601,88.13,205.797z
		 M451.315,193.343c0.266,2.444,0.42,4.948,0.456,7.44c0.008,0.557,0.462,1.002,1.017,1.002c0.005,0,0.01,0,0.015,0
		c0.562-0.008,1.01-0.471,1.002-1.032c-0.038-2.556-0.195-5.123-0.468-7.63c-0.061-0.558-0.563-0.961-1.121-0.901
		C451.657,192.283,451.254,192.785,451.315,193.343z M106.415,170.573c-0.462-0.32-1.096-0.204-1.415,0.259
		c-1.433,2.075-2.834,4.217-4.162,6.365c-0.295,0.478-0.147,1.104,0.33,1.4c0.167,0.103,0.351,0.152,0.534,0.152
		c0.341,0,0.674-0.171,0.866-0.482c1.31-2.119,2.691-4.231,4.106-6.279C106.993,171.525,106.877,170.892,106.415,170.573z
		 M114.261,158.772c-1.639,1.926-3.248,3.915-4.782,5.913c-0.342,0.445-0.258,1.084,0.187,1.426c0.185,0.142,0.403,0.21,0.619,0.21
		c0.305,0,0.607-0.137,0.807-0.398c1.514-1.971,3.101-3.934,4.718-5.834c0.364-0.428,0.312-1.07-0.115-1.434
		S114.625,158.345,114.261,158.772z M98.386,183.363c-0.492-0.27-1.111-0.091-1.381,0.401c-1.214,2.206-2.391,4.477-3.498,6.751
		c-0.246,0.505-0.036,1.114,0.469,1.36c0.143,0.07,0.295,0.103,0.445,0.103c0.377,0,0.739-0.21,0.915-0.572
		c1.092-2.243,2.254-4.484,3.452-6.66C99.057,184.252,98.878,183.633,98.386,183.363z M80.429,234.972
		c0.061,0.011,0.121,0.016,0.18,0.016c0.483,0,0.912-0.346,1-0.838c0.442-2.471,0.939-4.949,1.476-7.364
		c0.122-0.548-0.223-1.092-0.772-1.214c-0.549-0.122-1.092,0.223-1.214,0.772c-0.544,2.443-1.046,4.948-1.493,7.448
		C79.508,234.345,79.876,234.873,80.429,234.972z M78.448,249.945c0.034,0.003,0.067,0.005,0.101,0.005
		c0.517,0,0.959-0.392,1.011-0.918c0.246-2.499,0.541-5.01,0.878-7.463c0.076-0.556-0.313-1.07-0.869-1.146
		c-0.556-0.078-1.07,0.312-1.146,0.869c-0.34,2.478-0.639,5.016-0.887,7.541C77.48,249.393,77.889,249.89,78.448,249.945z
		 M188.946,108.071c-2.376,0.899-4.754,1.845-7.067,2.811c-0.518,0.217-0.763,0.812-0.546,1.331c0.163,0.39,0.541,0.625,0.939,0.625
		c0.131,0,0.263-0.025,0.392-0.079c2.293-0.958,4.649-1.895,7.003-2.786c0.525-0.199,0.79-0.786,0.591-1.311
		C190.058,108.138,189.472,107.873,188.946,108.071z M434.289,248.282c-1.74,1.712-3.627,3.353-5.61,4.877
		c-0.445,0.342-0.529,0.981-0.187,1.426c0.2,0.261,0.502,0.397,0.807,0.397c0.216,0,0.434-0.069,0.619-0.211
		c2.048-1.574,3.999-3.27,5.798-5.04c0.4-0.394,0.405-1.038,0.012-1.438C435.333,247.892,434.69,247.888,434.289,248.282z
		 M440.15,158.887c0.472-0.305,0.607-0.935,0.301-1.407c-1.359-2.101-2.841-4.2-4.404-6.238c-0.342-0.446-0.98-0.53-1.426-0.188
		c-0.446,0.342-0.53,0.98-0.188,1.426c1.53,1.995,2.98,4.049,4.311,6.105c0.195,0.301,0.521,0.465,0.855,0.465
		C439.788,159.05,439.98,158.998,440.15,158.887z M430.422,147.06c0.241,0,0.482-0.085,0.676-0.258
		c0.419-0.374,0.456-1.017,0.083-1.436c-1.659-1.861-3.43-3.717-5.264-5.516c-0.401-0.393-1.045-0.387-1.438,0.014
		c-0.393,0.401-0.387,1.045,0.014,1.438c1.802,1.767,3.541,3.589,5.169,5.417C429.864,146.945,430.142,147.06,430.422,147.06z
		 M419.646,136.474c0.285,0,0.568-0.119,0.769-0.351c0.368-0.425,0.322-1.067-0.103-1.435c-1.884-1.632-3.869-3.254-5.898-4.819
		c-0.445-0.343-1.083-0.26-1.427,0.184c-0.343,0.445-0.261,1.083,0.184,1.427c1.999,1.542,3.954,3.139,5.809,4.746
		C419.173,136.393,419.41,136.474,419.646,136.474z M422.526,257.349c-2.11,1.27-4.326,2.445-6.584,3.491
		c-0.51,0.236-0.731,0.841-0.495,1.35c0.172,0.371,0.539,0.59,0.923,0.59c0.143,0,0.289-0.03,0.427-0.095
		c2.324-1.077,4.605-2.286,6.777-3.594c0.481-0.29,0.637-0.915,0.347-1.396C423.632,257.214,423.007,257.059,422.526,257.349z
		 M444.795,236.245c-0.485-0.284-1.108-0.12-1.391,0.364c-1.242,2.123-2.645,4.187-4.168,6.136
		c-0.346,0.442-0.268,1.082,0.175,1.428c0.186,0.145,0.407,0.216,0.626,0.216c0.302,0,0.601-0.134,0.802-0.391
		c1.579-2.02,3.034-4.16,4.322-6.361C445.443,237.152,445.28,236.529,444.795,236.245z M409.027,263.595
		c-2.195,0.73-3.546,1.032-3.559,1.035c-0.548,0.121-0.894,0.664-0.773,1.212c0.105,0.474,0.525,0.798,0.992,0.798
		c0.073,0,0.146-0.008,0.22-0.024c0.058-0.013,1.456-0.324,3.762-1.092c0.533-0.178,0.821-0.753,0.644-1.286
		C410.136,263.706,409.561,263.418,409.027,263.595z M450.379,222.241c-0.542-0.149-1.101,0.169-1.25,0.711
		c-0.662,2.406-1.475,4.768-2.416,7.019c-0.217,0.518,0.028,1.114,0.546,1.331c0.128,0.054,0.261,0.079,0.392,0.079
		c0.398,0,0.776-0.235,0.939-0.625c0.974-2.331,1.815-4.775,2.5-7.264C451.238,222.95,450.92,222.39,450.379,222.241z
		 M452.635,207.309c-0.562-0.039-1.048,0.379-1.09,0.939c-0.182,2.443-0.474,4.941-0.869,7.425c-0.088,0.555,0.29,1.076,0.845,1.164
		c0.054,0.009,0.108,0.013,0.161,0.013c0.491,0,0.924-0.357,1.003-0.858c0.403-2.539,0.702-5.093,0.888-7.592
		C453.615,207.839,453.195,207.351,452.635,207.309z M447.061,172.31c0.518-0.217,0.762-0.813,0.545-1.331
		c-0.974-2.323-2.077-4.649-3.279-6.911c-0.263-0.496-0.879-0.685-1.375-0.421c-0.496,0.264-0.685,0.879-0.421,1.375
		c1.173,2.208,2.25,4.477,3.2,6.743c0.163,0.39,0.541,0.624,0.938,0.624C446.8,172.39,446.933,172.364,447.061,172.31z
		 M395.343,117.33c-2.185-1.226-4.445-2.431-6.719-3.582c-0.501-0.254-1.113-0.053-1.367,0.448
		c-0.254,0.501-0.053,1.113,0.448,1.367c2.248,1.138,4.483,2.329,6.642,3.541c0.157,0.088,0.328,0.13,0.497,0.13
		c0.356,0,0.701-0.187,0.888-0.52C396.007,118.225,395.833,117.605,395.343,117.33z M338.435,96.536
		c-2.444-0.494-4.956-0.961-7.466-1.387c-0.553-0.093-1.079,0.279-1.173,0.833c-0.094,0.554,0.279,1.079,0.833,1.173
		c2.489,0.422,4.979,0.885,7.403,1.375c0.068,0.014,0.136,0.02,0.203,0.02c0.474,0,0.898-0.333,0.996-0.816
		C339.342,97.184,338.986,96.648,338.435,96.536z M353.214,100.058c-2.394-0.663-4.87-1.299-7.36-1.891
		c-0.546-0.129-1.095,0.208-1.225,0.754c-0.13,0.546,0.208,1.095,0.754,1.225c2.465,0.586,4.917,1.216,7.287,1.872
		c0.091,0.025,0.182,0.037,0.272,0.037c0.446,0,0.855-0.295,0.98-0.746C354.072,100.768,353.755,100.207,353.214,100.058z
		 M323.466,93.992c-2.477-0.344-5.012-0.66-7.533-0.937c-0.56-0.059-1.061,0.342-1.122,0.9c-0.061,0.558,0.341,1.061,0.9,1.122
		c2.502,0.275,5.017,0.588,7.475,0.93c0.048,0.007,0.095,0.01,0.141,0.01c0.5,0,0.935-0.368,1.006-0.877
		C324.41,94.583,324.022,94.07,323.466,93.992z M308.378,92.331c-2.5-0.205-5.045-0.38-7.565-0.519
		c-0.558-0.031-1.041,0.399-1.072,0.96c-0.031,0.561,0.399,1.041,0.96,1.072c2.502,0.138,5.029,0.311,7.511,0.515
		c0.028,0.002,0.056,0.003,0.084,0.003c0.524,0,0.969-0.402,1.013-0.934C309.354,92.868,308.938,92.377,308.378,92.331z
		 M293.236,91.493c-2.51-0.073-5.062-0.113-7.586-0.121c-0.001,0-0.002,0-0.003,0c-0.56,0-1.015,0.453-1.017,1.014
		c-0.002,0.562,0.452,1.018,1.014,1.02c2.506,0.008,5.041,0.048,7.533,0.12c0.01,0,0.02,0,0.03,0c0.548,0,1-0.436,1.016-0.988
		C294.239,91.978,293.797,91.509,293.236,91.493z M278.06,91.448c-2.517,0.057-5.07,0.148-7.586,0.27
		c-0.561,0.027-0.994,0.504-0.967,1.065c0.026,0.544,0.476,0.968,1.015,0.968c0.017,0,0.033,0,0.05-0.001
		c2.499-0.121,5.034-0.211,7.534-0.268c0.562-0.013,1.007-0.478,0.994-1.04C279.087,91.88,278.617,91.436,278.06,91.448z
		 M407.685,127.232c0.323,0,0.64-0.153,0.837-0.439c0.319-0.462,0.204-1.096-0.258-1.415c-2.054-1.42-4.196-2.825-6.367-4.175
		c-0.477-0.297-1.104-0.151-1.401,0.326c-0.297,0.477-0.151,1.104,0.326,1.401c2.143,1.333,4.257,2.72,6.284,4.121
		C407.284,127.174,407.485,127.232,407.685,127.232z M381.768,110.454c-2.287-1.043-4.635-2.058-6.981-3.018
		c-0.52-0.213-1.114,0.036-1.326,0.556c-0.213,0.52,0.036,1.114,0.556,1.326c2.321,0.95,4.646,1.954,6.908,2.986
		c0.137,0.062,0.28,0.092,0.421,0.092c0.386,0,0.755-0.221,0.926-0.595C382.505,111.29,382.279,110.687,381.768,110.454z
		 M367.693,104.694c-2.298-0.837-4.637-1.64-6.952-2.386l-0.243-0.078c-0.535-0.171-1.107,0.124-1.279,0.659
		c-0.171,0.535,0.124,1.107,0.659,1.279l0.239,0.077c2.291,0.738,4.606,1.533,6.879,2.361c0.115,0.042,0.233,0.062,0.348,0.062
		c0.415,0,0.805-0.256,0.956-0.669C368.493,105.47,368.221,104.886,367.693,104.694z M83.027,275.413l-5.497-18.645l-14.335-5.256
		l19.833,40.682l13.476-37.631l-14.239,4.577L83.027,275.413z"></path>
	<path id="color_x5F_13" fill="#622C80" d="M292.592,333.277l-4.329,15.769h-10.204l-4.02-15.769h8.695l0.034-7.112c-0.502-2.203-5.218-6.3-5.218-6.3
		c2.937,1.585,5.527,5.488,5.527,5.488l0.387-13.682l0.502,15.46c2.667-2.512,5.759-2.01,5.759-2.01
		c-4.522,0.348-5.875,3.324-5.875,3.324v4.831H292.592z"></path>
	<path id="color_x5F_12" fill="#FCB857" d="M282.073,309.971c2.086-2.507,1.121-4.406,1.121-4.406s5.372,3.826,4.909,8.773
		c-0.389,4.147-3.407,5.225-4.374,5.465l-0.264-8.132l-0.228,8.082C279.98,317.854,279.534,313.022,282.073,309.971z
		 M277.551,319.865c2.045,1.103,3.921,3.33,4.872,4.581c0.944-4.776-3.406-5.513-4.988-6.417c-1.353-0.773-1.855-2.39-1.855-2.39
		s-2.203,6.506,1.121,8.825c2.757,1.924,4.983,0.798,5.511,0.477C280.832,322.717,277.551,319.865,277.551,319.865z
		 M294.106,321.128c-1.443,1.829-3.762,0.129-6.442,1.417c-1.803,0.867-2.594,2.859-2.899,3.929
		c2.449-1.759,4.961-1.352,4.961-1.352c-2.58,0.198-4.127,1.252-4.981,2.12c0.517,0.197,2.412,0.806,5.039,0.315
		C294.211,326.728,294.106,321.128,294.106,321.128z"></path>
	<path id="color_x5F_11" fill="#7D8C9C" d="M381.623,505.417H187.347c0,0,8.805-1.124,14.332-2.061c5.527-0.937,6.838-0.843,9.367-2.248
		c2.529-1.405,4.777-4.684,8.243-4.871s4.215,1.78,4.215,1.78s0-6.838,4.028-7.587c4.028-0.749,5.995,2.435,5.995,2.435
		s-1.592-8.149,1.124-9.274c2.716-1.124,5.527,3.747,5.527,3.747s-0.843-9.555,3.653-10.491c4.496-0.937,7.494,10.491,7.494,10.491
		s-0.843-8.618,3.934-9.18c4.777-0.562,6.932,5.714,6.932,5.714s-1.405-7.868,1.405-8.899c2.81-1.03,9.367,4.684,9.367,4.684
		s-3.279-7.868,0.656-9.086c3.934-1.218,8.243,6.463,8.243,6.463s-2.904-9.648,0.749-11.241c3.653-1.592,5.058,0,5.058,0
		s-2.623-6.276,0.562-6.557c3.185-0.281,7.701,5.058,7.701,5.058s-2.081-5.808,1.104-6.37c3.185-0.562,5.62,3.185,5.62,3.185
		s-8.992-24.167,0.187-26.603c9.18-2.435,20.608,20.046,20.608,20.046s2.342-5.527,4.965-4.496
		c2.623,1.03,4.309,13.582,4.309,13.582s2.061-5.152,4.684-4.028c2.623,1.124,2.154,8.899,2.154,8.899s2.716-4.871,5.339-3.466
		c2.623,1.405-0.468,7.494-0.468,7.494s4.309-2.904,6.651-1.592c2.342,1.311-2.342,10.117-2.342,10.117s3.185-3.091,4.215,0.281
		c1.03,3.372-1.311,7.775-1.311,7.775s4.496-3.56,6.463-2.248c1.967,1.311,0.656,5.152,0.656,5.152s4.59-4.028,7.681-2.904
		c3.091,1.124,0.468,7.681,0.468,7.681s2.716-5.152,5.058-3.653s1.124,5.62,1.124,5.62s1.686-3.091,4.777-2.154
		C380.967,497.549,381.623,505.417,381.623,505.417z"></path>
	<path id="color_x5F_10" fill="#86CFEB" d="M177.694,473.732c2.921,1.273,0.599,8.989,0.599,8.989s3.446-6.142,6.592-5.168
		c3.146,0.974,0.524,7.266,0.524,7.266s5.243-4.569,7.49-3.745c2.247,0.824,1.124,7.116,1.124,7.116s1.723-5.019,5.543-4.569
		c3.82,0.449,3.146,7.341,3.146,7.341s2.397-9.138,5.992-8.389c3.595,0.749,2.921,8.389,2.921,8.389s2.247-3.895,4.419-2.996
		c2.172,0.899,0.899,7.416,0.899,7.416s1.573-2.547,4.794-1.948c0.98,0.182,1.66,0.816,2.135,1.609c0,0,0,0,0,0
		c0.449-1.945,1.444-4.2,3.66-4.612c4.028-0.749,5.995,2.435,5.995,2.435s-1.592-8.149,1.124-9.274
		c2.716-1.124,5.527,3.747,5.527,3.747s-0.843-9.555,3.653-10.491c4.496-0.937,7.494,10.491,7.494,10.491s-0.843-8.618,3.934-9.18
		c4.777-0.562,6.932,5.714,6.932,5.714s-1.405-7.868,1.405-8.899c2.81-1.03,9.367,4.684,9.367,4.684s-3.279-7.868,0.656-9.086
		c3.934-1.218,8.243,6.463,8.243,6.463s-2.904-9.648,0.749-11.241c3.653-1.592,5.058,0,5.058,0s-2.623-6.276,0.562-6.557
		c3.185-0.281,7.701,5.058,7.701,5.058s-2.081-5.808,1.104-6.37c3.185-0.562,5.62,3.185,5.62,3.185s-8.993-24.167,0.187-26.603
		c9.18-2.435,20.608,20.046,20.608,20.046s2.342-5.527,4.965-4.496c2.623,1.03,4.309,13.582,4.309,13.582s2.061-5.152,4.684-4.028
		c2.623,1.124,2.154,8.899,2.154,8.899s2.717-4.871,5.339-3.466c2.623,1.405-0.468,7.494-0.468,7.494s4.309-2.904,6.651-1.592
		c2.342,1.311-2.342,10.117-2.342,10.117s3.185-3.091,4.215,0.281c0.467,1.529,0.241,3.268-0.146,4.715
		c0.732,0.315,1.446,0.722,2.039,1.097c0.291-0.131,0.586-0.248,0.878-0.341c-0.65-1.649-1.485-4.476-0.766-6.828
		c1.089-3.562,4.453-0.297,4.453-0.297s-4.948-9.302-2.474-10.687c2.474-1.385,7.026,1.682,7.026,1.682s-3.266-6.432-0.495-7.917
		c2.771-1.484,5.641,3.661,5.641,3.661s-0.495-8.213,2.276-9.401c2.771-1.187,4.948,4.255,4.948,4.255s1.781-13.26,4.552-14.349
		c2.771-1.089,5.245,4.75,5.245,4.75s12.073-23.749,21.77-21.177s0.198,28.104,0.198,28.104s2.573-3.958,5.937-3.365
		c3.365,0.594,1.166,6.729,1.166,6.729s2.686-3.176,5.449-4.636V356.665l-14.507,8.828c3.502,8.899,6.085,15.883,6.085,15.883
		h-1.443l1.443,4.179h0.315v1.604c0,0,7.207,2.736,7.735,2.981c0.528,0.245,0.34,1.189,0.34,1.189h-12.602v-5.773h0.322
		l-2.119-4.179h-1.751l-6.557-10.873l-99.49,60.539l-122.23-74.376v116.587C176.631,473.336,177.129,473.486,177.694,473.732z"></path>
	<path id="color_x5F_9" fill="#CBE4ED" d="M134.545,315.379c1.263,0,2.287,1.72,2.287,3.842s-1.024,3.842-2.287,3.842
		c-1.263,0-2.287-1.72-2.287-3.842S133.282,315.379,134.545,315.379z M124.534,320.504c0,2.122,1.024,3.842,2.287,3.842
		c1.263,0,2.287-1.72,2.287-3.842c0-2.122-1.024-3.842-2.287-3.842C125.557,316.661,124.534,318.382,124.534,320.504z"></path>
	<path id="color_x5F_8" fill="#00B3C8" d="M133.474,315.379c0.185,0,0.363,0.041,0.536,0.11c-1.004,0.406-1.751,1.92-1.751,3.732
		c0,1.812,0.747,3.326,1.751,3.732c-0.172,0.07-0.351,0.11-0.536,0.11c-1.096,0-2.01-1.295-2.234-3.024l-2.05,0.417l-0.165-0.812
		l2.162-0.44C131.193,317.09,132.214,315.379,133.474,315.379z M117.747,317.222l5.726,3.627c0.104,1.96,1.083,3.498,2.277,3.498
		c0.185,0,0.363-0.041,0.536-0.11c-1.004-0.406-1.751-1.92-1.751-3.732c0-1.812,0.747-3.326,1.751-3.732
		c-0.172-0.069-0.351-0.11-0.536-0.11c-1.137,0-2.077,1.394-2.254,3.219l-5.305-3.36L117.747,317.222z"></path>
	<path id="color_x5F_7" fill="#0A0D0D" d="M353.723,239.317l-0.125-1.508c0,0,0.042,1.416-1.878,3.416s-9.402,2.16-9.402,2.16s0.363-1.52-1.237-2
		c-1.6-0.48-2.8,0.78-1.84,3.15c0.96,2.37,1.76,2.13,2.08,3.33c0.32,1.2-4.876,5.575-4.876,5.575s-1.684-2.935-5.124-4.935
		s-4.64-8.559-4.08-12.079c0.56-3.52,2.003-6.56,2.003-6.56s-5.123-1.126-7.363,6.316c-2.24,7.443,0.32,10.642-6.24,15.922
		c-6.56,5.28-20.159,4.64-20.159,4.64s8.639-2.08,12.479-8.319c3.84-6.24,0.64-17.279,7.2-25.438
		c6.56-8.159,16.479,4.177,16.479,4.177s4.874-2.257,10.676-2.337c5.803-0.08,9.663,3.475,11.022,6.995
		C354.273,234.24,353.723,239.317,353.723,239.317z M117.974,317.366c0.08,2.555,1.014,3.048,1.014,3.048s-0.431-1.141,0.451-2.12
		L117.974,317.366z M125.432,299.456c-3.732-0.553-13.89,0.898-16.793,7.809c-2.902,6.911-1.244,13.752,1.52,17.277
		c2.764,3.524,8.459,6.583,8.459,6.583s-0.511-7.412-1.064-8.103c-0.553-0.691-1.589-1.175-3.11-3.179
		c-1.52-2.004-0.622-6.565,1.728-5.943c2.347,0.621,1.798,2.966,1.797,2.971l0.222-0.35l1.942,1.23
		c1.702-0.931,6.309-1.167,8.496-2.21c2.28-1.088,2.384-3.421,2.384-3.421s1.659,1.762,2.817,1.555
		c1.158-0.207,5.217-2.384,7.29-4.302c2.073-1.918,3.421-4.613,3.265-4.872c-0.156-0.259-1.399,0.104-1.659-0.311
		s0.415-0.726,2.643-1.607c2.229-0.881,3.576-2.851,3.68-3.234C149.153,298.967,129.164,300.009,125.432,299.456z"></path>
	<path id="color_x5F_6" fill="#2BB2CC" d="M351.762,296.474l19.847,17.191l-4.106,3.918l-16.54-8.413c0.897,7.174,4.056,18.541,4.056,18.541
		l-30.689,0.79c0,0,4.563-26.755,4.114-34.826c-0.448-8.071-2.072-5.382-1.026-19.382c0.531-7.106,8.669-16.341,8.669-16.341
		l11.768,3.554c0,0,1.584,5.862,3.079,11.99c0.779,3.193,2.085,5.939,3.115,8.197l26.099-7.82l1.895,5.649l-29.49,13.946
		C352.25,294.348,351.975,295.336,351.762,296.474z M120.561,374.51h-7.208l1.116,2.721l-4.431-2.243l-2.263,4.47l7.272,3.682
		c0,0,1.669,1.946,2.468,2.63c0.129,0.11,0.354,0.265,0.635,0.44l0.87,2.121h1.542h12.28h10.208l0.297,18.517h-37.18V379.62
		c0,0-12.025-4.283-13.96-6.979c-1.935-2.696,6.185-27.463,24.516-34.913c0,0,1.33,2.709,5.615,2.916
		c4.285,0.207,6.771-2.21,6.771-2.21s12.164,4.698,14.514,7.048c1.336,1.336,4.996,8.616,8.032,15.207h-31.092V374.51z
		 M108.269,359.027l-3.762,8.293l3.267,2.903l0.495-1.52V359.027z"></path>
	<path id="color_x5F_5" fill="#FFD2BB" d="M210.754,348.873h175.345v28.82l-87.673,53.348l-87.673-53.348V348.873z M399.42,299.263l-11.098,24.581
		h-31.38v3.587h33.696l12.717-28.168H399.42z M120.561,374.51h-7.209l1.116,2.721l2.841,1.439c0,0,1.657-1.203,3.378-0.877
		c1.721,0.326,3.422,1.271,4.692,1.328c1.271,0.057,2.071-0.558,2.358-0.133c0.288,0.425-0.789,1.78-1.427,2.267
		c-0.638,0.487-1.717,0.081-2.441,0.021c-0.724-0.059-1.044,0.187-1.044,0.187s4.073,2.275,4.648,2.353
		c0.575,0.079,2.887,1.031,3.403,1.723c0.516,0.692-1.107,1.635-1.977,1.807c-0.869,0.172-4.159,0.434-5.243,0.919
		c-0.909,0.407-4.046-1.141-5.507-2.054l0.87,2.121h1.542h12.28h27.526v-27.643h-39.806V374.51z"></path>
	<path id="color_x5F_4" fill="#00CEC9" d="M412.234,381.376h-7.761l-21.141-35.057c0,0-50.579,5.887-56.199,0c-5.62-5.887-2.881-17.93-2.881-17.93
		l27.475-0.707c0,0,31.872-0.899,36.689,0.707C393.234,329.994,412.234,381.376,412.234,381.376z M420.284,390.139
		c-0.528-0.245-7.735-2.981-7.735-2.981v-1.604h-0.415h-4.113v5.773h12.602C420.624,391.328,420.813,390.384,420.284,390.139z
		 M126.429,504.475c-0.419-0.194-6.129-2.362-6.129-2.362v-1.271h-0.329h-3.259v4.574h9.986
		C126.699,505.417,126.848,504.67,126.429,504.475z M138.938,504.475c-0.419-0.194-6.129-2.362-6.129-2.362v-1.271h-0.329h-3.259
		v4.574h9.986C139.207,505.417,139.356,504.67,138.938,504.475z M114.834,496.411h7.188l1.783-70.645h1.745l1.573,70.645h7.188
		l9.275-89.563h-36.867L114.834,496.411z"></path>
	<path id="color_x5F_3" fill="#E84393" d="M412.234,385.555h-3.891l-2.119-4.179h4.567L412.234,385.555z M353.717,239.248l-0.116-1.396
		c-0.001-0.011-0.002-0.023-0.004-0.035c0,0.095-0.026,1.477-1.878,3.407c-1.92,2-9.402,2.16-9.402,2.16s0.363-1.52-1.237-2
		c-1.6-0.48-2.8,0.78-1.84,3.15c0.96,2.37,1.76,2.13,2.08,3.33c0.32,1.2-4.876,5.575-4.876,5.575s-0.001-0.001-0.001-0.001
		c0.303,1.672,0.456,3.55,0.53,4.781l9.464,2.858c-0.06-1.799-0.049-4.263,0.434-4.595c0.771-0.53,1.786-0.443,4.435-1.784
		c1.904-0.964,2.314-5.93,2.362-6.364c0.048-0.434,1.38-1.031,1.35-1.543c-0.042-0.721-1.35-4.58-1.35-4.58
		C353.749,241.157,353.761,240.172,353.717,239.248z M392.765,269.483c-0.668-0.038-2.386,0.861-2.719,1.164
		c-0.333,0.302-3.714,1.59-3.714,1.59s0.013-0.313,0.409-0.714c0.396-0.401,1.176-0.84,1.204-1.461
		c0.028-0.622-0.24-1.937-0.636-1.978c-0.396-0.041-0.429,0.741-1.096,1.468c-0.667,0.727-2.076,1.267-3.127,2.127
		c-1.051,0.86-1.162,2.444-1.162,2.444l-1.479,0.633l1.239,3.696l1.769-0.757c0,0,1.988-0.022,2.793-0.156
		c0.805-0.134,4.29-1.521,4.542-2.406c0.252-0.886,1.735-2.971,2.066-3.573C393.185,270.956,393.433,269.521,392.765,269.483z
		 M380.981,320.485c-0.461-0.112-3.585-2.302-3.585-2.302s0.281-0.173,0.865-0.065c0.584,0.109,1.428,0.53,1.988,0.186
		c0.56-0.343,1.549-1.355,1.35-1.725c-0.199-0.37-0.901,0.064-1.93-0.088c-1.029-0.152-2.334-1.063-3.706-1.471
		c-1.373-0.409-2.821,0.432-2.821,0.432l-2.035-1.307l-3.05,2.911l2.872,1.844c0,0,1.196,1.722,1.789,2.345
		c0.593,0.623,3.866,2.846,4.788,2.541c0.922-0.304,3.62-0.243,4.342-0.31c0.721-0.067,2.121-0.7,1.759-1.305
		C383.244,321.564,381.442,320.597,380.981,320.485z M129.472,500.843h2.833l0.449-4.432h-3.732L129.472,500.843z M130.876,385.538
		c-0.516-0.692-2.828-1.644-3.402-1.723c-0.575-0.079-4.648-2.353-4.648-2.353s0.32-0.246,1.044-0.187
		c0.724,0.059,1.804,0.466,2.442-0.021s1.715-1.842,1.427-2.267c-0.288-0.425-1.088,0.19-2.358,0.133
		c-1.271-0.057-2.971-1.001-4.692-1.328c-1.721-0.326-3.378,0.877-3.378,0.877l-7.272-3.682l-2.263,4.47l7.272,3.682
		c0,0,1.669,1.946,2.468,2.63c0.799,0.684,5.057,2.98,6.141,2.494c1.084-0.485,4.374-0.747,5.243-0.919
		C129.768,387.174,131.392,386.23,130.876,385.538z M125.749,316.661c0.185,0,0.364,0.041,0.536,0.11l0,0
		c0.172-0.07,0.351-0.11,0.536-0.11c1.086,0,1.993,1.273,2.227,2.978l2.14-0.436c0.005-2.058,0.974-3.73,2.188-3.817
		c0.048-0.577,0.114-1.142,0.175-1.701c-1.128-0.071-2.537-1.566-2.537-1.566s-0.104,2.332-2.384,3.421
		c-2.186,1.043-6.794,1.279-8.496,2.21l3.362,2.129C123.673,318.056,124.613,316.661,125.749,316.661z M131.24,320.039l-2.05,0.417
		l-0.114-0.56c0.019,0.198,0.031,0.4,0.031,0.607c0,2.122-1.024,3.842-2.287,3.842c-0.185,0-0.364-0.041-0.536-0.11
		c-0.172,0.07-0.351,0.11-0.536,0.11c-1.194,0-2.173-1.537-2.277-3.498l-4.034-2.555c-0.882,0.979-0.451,2.12-0.451,2.12
		s-0.934-0.492-1.014-3.048l-0.227-0.144l0.222-0.351c0.001-0.005,0.55-2.35-1.797-2.971c-2.35-0.622-3.248,3.939-1.728,5.943
		c1.52,2.004,2.557,2.488,3.11,3.179c0.553,0.691,1.064,8.103,1.064,8.103s0.354,2.687-0.212,4.454
		c-0.208,0.652-0.898,1.428-1.685,2.149c0.001,0.002,1.331,2.708,5.615,2.916c4.285,0.207,6.771-2.21,6.771-2.21
		c-0.702-0.547-1.31-1.163-1.581-1.794c-0.848-1.98-1.112-4.561,0.02-5.268c1.131-0.707,2.732-1.545,4.146-2.747
		c0.943-0.802,1.832-3.054,2.071-5.596c-0.095,0.021-0.192,0.035-0.29,0.035C132.378,323.063,131.463,321.768,131.24,320.039z
		 M116.963,500.843h2.833l0.449-4.432h-3.732L116.963,500.843z"></path>
	<path id="color_x5F_2" fill="#FBC02D" d="M116.713,500.843v4.574H98.519c0,0,0.524-6.292,2.996-7.041c2.472-0.749,3.82,1.723,3.82,1.723
		s-0.974-3.296,0.899-4.494c1.873-1.198,4.045,2.921,4.045,2.921s-2.097-5.243,0.375-6.142c1.198-0.436,2.677,0.097,3.884,0.761
		l0.296,3.266h1.68l0.449,4.431H116.713z M514.778,503.24c-5.838-0.99-7.224-0.891-9.896-2.375
		c-2.672-1.484-5.047-4.948-8.708-5.146c-3.661-0.198-4.453,1.88-4.453,1.88s0-7.224-4.255-8.015
		c-4.255-0.792-6.333,2.573-6.333,2.573s1.682-8.609-1.187-9.797c-2.87-1.187-5.838,3.958-5.838,3.958s0.891-10.093-3.859-11.083
		s-7.916,11.083-7.916,11.083s0.891-9.104-4.156-9.698c-5.047-0.594-7.323,6.036-7.323,6.036s1.484-8.312-1.484-9.401
		c-2.969-1.089-9.896,4.948-9.896,4.948s3.463-8.312-0.693-9.599c-4.156-1.286-8.708,6.828-8.708,6.828s3.068-10.192-0.792-11.875
		c-3.859-1.682-5.344,0-5.344,0s2.771-6.63-0.594-6.927c-3.365-0.297-8.136,5.344-8.136,5.344s2.198-6.135-1.166-6.729
		c-3.365-0.594-5.937,3.365-5.937,3.365s9.5-25.531-0.198-28.104s-21.77,21.177-21.77,21.177s-2.474-5.838-5.245-4.75
		c-2.771,1.089-4.552,14.349-4.552,14.349s-2.177-5.443-4.948-4.255c-2.771,1.187-2.276,9.401-2.276,9.401s-2.87-5.146-5.641-3.661
		c-2.771,1.484,0.495,7.917,0.495,7.917s-4.552-3.068-7.026-1.682c-2.474,1.385,2.474,10.687,2.474,10.687s-3.365-3.266-4.453,0.297
		c-0.719,2.353,0.116,5.179,0.766,6.828c0.898-0.287,1.764-0.355,2.381,0.056c1.967,1.311,0.656,5.152,0.656,5.152
		s4.59-4.028,7.681-2.904c3.091,1.124,0.468,7.681,0.468,7.681s2.717-5.152,5.058-3.653c2.342,1.499,1.124,5.62,1.124,5.62
		s1.686-3.091,4.777-2.154c3.091,0.937,3.747,8.805,3.747,8.805h148.296C529.919,505.417,520.617,504.23,514.778,503.24z
		 M351.648,489.118c0,0,1.536-1.215,3.205-1.963c-0.594-0.375-1.307-0.782-2.039-1.097
		C352.347,487.802,351.648,489.118,351.648,489.118z M211.046,501.108c2.529-1.405,4.777-4.684,8.243-4.871
		c3.466-0.187,4.215,1.78,4.215,1.78s0.001-1.385,0.368-2.976c-0.474-0.792-1.155-1.426-2.135-1.609
		c-3.221-0.599-4.794,1.948-4.794,1.948s1.273-6.517-0.899-7.416c-2.172-0.899-4.419,2.996-4.419,2.996s0.674-7.64-2.921-8.389
		c-3.595-0.749-5.992,8.389-5.992,8.389s0.674-6.891-3.146-7.341c-3.82-0.449-5.543,4.569-5.543,4.569s1.124-6.292-1.124-7.116
		c-2.247-0.824-7.49,3.745-7.49,3.745s2.622-6.292-0.524-7.266c-3.146-0.974-6.592,5.168-6.592,5.168s2.322-7.715-0.599-8.989
		c-2.921-1.273-4.045,0-4.045,0s2.097-5.019-0.449-5.243c-2.547-0.225-6.158,4.045-6.158,4.045s1.664-4.644-0.883-5.094
		c-2.547-0.449-4.494,2.547-4.494,2.547s7.191-19.326-0.15-21.273c-7.341-1.948-16.479,16.03-16.479,16.03s-1.873-4.419-3.97-3.595
		c-2.097,0.824-3.446,10.861-3.446,10.861s-0.238-0.595-0.649-1.284l-2.66,25.686h-1.557l-0.449,4.431h0.175h0.329v1.271
		c0,0,5.71,2.168,6.129,2.362c0.419,0.194,0.269,0.942,0.269,0.942h48.14c0,0,8.805-1.124,14.332-2.061
		C207.206,502.42,208.517,502.513,211.046,501.108z M129.472,500.843l-0.449-4.431h-1.899l-0.404-18.133
		c-1.158-0.534-2.721-1.02-3.781-0.427c-0.245,0.137-0.392,0.378-0.465,0.69l-0.027,1.056c0.282,2.426,2.365,6.343,2.365,6.343
		s-1.436-1.394-2.501-0.946l-0.168,6.64c0.196,0.465,0.346,0.747,0.346,0.747s-0.133-0.105-0.358-0.267l-0.108,4.295h-1.776
		l-0.449,4.431h0.175h0.329v1.271c0,0,5.71,2.168,6.129,2.362c0.419,0.194,0.269,0.942,0.269,0.942h2.523v-4.574H129.472z"></path>
</g>
<path id="color_x5F_1" fill="#0984E3" d="M484.186,253.248c17.063-92.057-33.04-189.677-167.056-189.637C246.84,63.632,208.657,81.325,186.27,109.11
	c0.891-0.35,1.782-0.7,2.676-1.038c0.526-0.199,1.112,0.066,1.311,0.591c0.199,0.525-0.066,1.112-0.591,1.311
	c-1.967,0.744-3.926,1.525-5.857,2.319c-21.882,29.425-27.622,69.276-35.089,111.25C133.737,307.755,47.326,342.015,45.139,413.987
	c-2.473,81.393,51.908,91.431,51.908,91.431l1.472-0.003c0.002-0.028,0.53-6.291,2.996-7.039c2.472-0.749,3.82,1.723,3.82,1.723
	s-0.974-3.296,0.899-4.494c1.873-1.198,4.045,2.921,4.045,2.921s-2.097-5.243,0.374-6.142c1.198-0.436,2.677,0.097,3.884,0.761
	l-7.82-86.297h-0.553V379.62c0,0-12.024-4.283-13.96-6.979c-1.935-2.696,6.185-27.463,24.516-34.913l0,0
	c0.787-0.721,1.476-1.497,1.685-2.149c0.566-1.768,0.212-4.454,0.212-4.454s-5.694-3.059-8.459-6.583
	c-2.764-3.524-4.423-10.366-1.52-17.277c2.903-6.911,13.061-8.362,16.793-7.809c3.732,0.553,23.721-0.49,23.617-0.107
	c-0.104,0.383-1.451,2.353-3.68,3.234c-2.229,0.881-2.902,1.192-2.643,1.607c0.259,0.415,1.503,0.052,1.659,0.311
	c0.155,0.259-1.192,2.954-3.265,4.872c-2.073,1.918-6.132,4.095-7.29,4.302c-0.115,0.021-0.238,0.009-0.361-0.006
	c0.027,0.003,0.055,0.015,0.082,0.017c-0.061,0.559-0.127,1.124-0.175,1.701c-0.042,0.003-0.082,0.022-0.124,0.029
	c0.074-0.012,0.146-0.038,0.222-0.038c0.185,0,0.363,0.041,0.536,0.11c-0.066,0.026-0.127,0.07-0.19,0.106
	c0.229-0.13,0.47-0.216,0.726-0.216c1.263,0,2.287,1.72,2.287,3.842c0,2.122-1.024,3.842-2.287,3.842
	c-0.255,0-0.496-0.086-0.725-0.216c0.063,0.036,0.124,0.079,0.189,0.105c-0.172,0.07-0.351,0.11-0.536,0.11
	c0.099,0,0.195-0.013,0.29-0.035c-0.239,2.542-1.128,4.794-2.071,5.596c-1.414,1.202-3.015,2.04-4.146,2.747
	c-1.131,0.707-0.868,3.289-0.02,5.268c0.27,0.631,0.878,1.247,1.581,1.794c0,0-0.039,0.038-0.115,0.104
	c0.076-0.066,0.115-0.103,0.115-0.103s12.164,4.698,14.514,7.048c1.336,1.336,4.996,8.616,8.032,15.207h8.713v27.643h-17.318
	l0.297,18.517h0.241l-6.615,63.877c0.41,0.688,0.649,1.284,0.649,1.284s1.348-10.037,3.446-10.861
	c2.097-0.824,3.97,3.595,3.97,3.595s9.138-17.977,16.479-16.03c7.341,1.948,0.15,21.273,0.15,21.273s1.948-2.996,4.494-2.547
	c2.547,0.449,0.883,5.094,0.883,5.094s3.611-4.27,6.158-4.045c2.547,0.225,0.449,5.243,0.449,5.243s0.823-0.903,2.854-0.401
	c-0.102-0.025-0.212-0.06-0.307-0.078V356.665l0,0l76.996-51.968c22.494-15.182,50.72-17.868,75.245-8.063
	c0.046-1.142,0.054-2.149,0.009-2.96c-0.449-8.071-2.072-5.382-1.026-19.382c0.531-7.106,8.669-16.341,8.669-16.341l0.886,0.268
	c-0.074-1.231-0.227-3.109-0.53-4.781c-0.003-0.006-1.687-2.936-5.123-4.934c-3.44-2-4.64-8.559-4.08-12.079
	c0.56-3.52,2.003-6.56,2.003-6.56s-5.123-1.126-7.363,6.316c-2.24,7.443,0.32,10.642-6.24,15.922
	c-6.559,5.28-20.159,4.64-20.159,4.64s8.639-2.08,12.479-8.319s0.64-17.279,7.2-25.438c6.559-8.159,16.479,4.177,16.479,4.177
	s4.874-2.257,10.676-2.337c5.803-0.08,9.663,3.475,11.022,6.994c0.934,2.42,0.384,7.496,0.384,7.496l-0.006-0.068
	c0.044,0.924,0.032,1.909-0.048,2.964c0,0,1.308,3.859,1.35,4.58c0.03,0.512-1.302,1.109-1.35,1.543
	c-0.048,0.434-0.458,5.4-2.362,6.364c-2.649,1.341-3.664,1.253-4.435,1.784c-0.483,0.332-0.493,2.796-0.434,4.595l1.418,0.428
	c0,0,1.584,5.862,3.079,11.99c0.779,3.193,2.085,5.939,3.115,8.197l26.099-7.82l1.894,5.649l-29.49,13.946
	c-0.303,0.88-0.578,1.868-0.791,3.006l19.847,17.191l-4.106,3.918l-16.54-8.413c0.02,0.162,0.047,0.337,0.07,0.504l20.994,14.17
	h16.294l11.098-24.581h3.936l-12.717,28.168h-13.296l0.112,0.075c-0.136-0.003-0.277-0.005-0.414-0.008
	c5.312,0.108,9.798,0.364,11.376,0.89c1.37,0.457,3.889,4.945,6.792,11.13c-0.006-0.014-0.013-0.029-0.02-0.043l25.468,17.189
	v100.674c-0.001,0-0.001,0.001-0.002,0.001c0.92-0.486,1.848-0.783,2.688-0.709c3.365,0.297,0.594,6.927,0.594,6.927
	s1.484-1.682,5.344,0c3.859,1.682,0.792,11.875,0.792,11.875s4.552-8.114,8.708-6.828c4.156,1.286,0.693,9.599,0.693,9.599
	s6.927-6.036,9.896-4.948c2.969,1.089,1.484,9.401,1.484,9.401s2.276-6.63,7.323-6.036c5.047,0.594,4.156,9.698,4.156,9.698
	s3.167-12.073,7.916-11.083c4.75,0.99,3.859,11.083,3.859,11.083s2.969-5.146,5.838-3.958s1.187,9.797,1.187,9.797
	s2.078-3.365,6.333-2.573c4.255,0.792,4.255,8.015,4.255,8.015s0.792-2.078,4.453-1.88c3.661,0.198,6.036,3.661,8.708,5.146
	c2.672,1.484,4.057,1.385,9.896,2.375c0.629,0.107,1.303,0.216,1.995,0.325c15.387-3.852,58.367-19.103,57.919-69.242
	C574.155,374.099,467.123,345.305,484.186,253.248z M203.929,105.103c-2.406,0.737-4.819,1.518-7.171,2.32
	c-0.109,0.037-0.22,0.055-0.329,0.055c-0.423,0-0.818-0.266-0.963-0.689c-0.181-0.532,0.103-1.11,0.634-1.291
	c2.373-0.81,4.806-1.597,7.232-2.34c0.537-0.165,1.106,0.137,1.27,0.675C204.768,104.37,204.466,104.939,203.929,105.103z
	 M218.465,101.131c-2.441,0.59-4.896,1.221-7.297,1.877c-0.09,0.024-0.18,0.036-0.269,0.036c-0.447,0-0.857-0.297-0.981-0.749
	c-0.148-0.542,0.171-1.101,0.713-1.249c2.42-0.661,4.895-1.297,7.355-1.892c0.546-0.131,1.096,0.204,1.227,0.75
	C219.346,100.449,219.011,100.999,218.465,101.131z M233.198,98.014c-2.467,0.45-4.953,0.939-7.388,1.454
	c-0.071,0.015-0.142,0.022-0.211,0.022c-0.47,0-0.893-0.328-0.994-0.807c-0.116-0.55,0.235-1.089,0.785-1.205
	c2.453-0.519,4.958-1.011,7.443-1.465c0.553-0.101,1.082,0.266,1.183,0.818C234.117,97.383,233.751,97.913,233.198,98.014z
	 M248.068,95.717c-2.484,0.316-4.99,0.668-7.449,1.048c-0.053,0.008-0.105,0.012-0.156,0.012c-0.493,0-0.926-0.359-1.004-0.862
	c-0.086-0.555,0.295-1.075,0.85-1.16c2.476-0.382,5-0.737,7.502-1.055c0.557-0.069,1.066,0.324,1.137,0.881
	C249.02,95.137,248.625,95.646,248.068,95.717z M263.047,94.211c-2.501,0.186-5.028,0.407-7.51,0.656
	c-0.035,0.003-0.069,0.005-0.103,0.005c-0.516,0-0.958-0.391-1.011-0.915c-0.056-0.559,0.351-1.058,0.91-1.114
	c2.5-0.251,5.044-0.474,7.563-0.661c0.56-0.044,1.048,0.379,1.09,0.939C264.028,93.682,263.607,94.17,263.047,94.211z
	 M278.106,93.481c-2.5,0.057-5.035,0.147-7.534,0.268c-0.017,0.001-0.034,0.001-0.05,0.001c-0.539,0-0.989-0.424-1.015-0.968
	c-0.027-0.561,0.405-1.038,0.967-1.065c2.517-0.122,5.069-0.213,7.586-0.27c0.557-0.012,1.027,0.432,1.04,0.994
	C279.113,93.003,278.668,93.468,278.106,93.481z M293.207,93.527c-0.01,0-0.02,0-0.03,0c-2.492-0.072-5.027-0.112-7.533-0.12
	c-0.562-0.002-1.016-0.459-1.014-1.02c0.002-0.561,0.457-1.014,1.017-1.014c0.001,0,0.002,0,0.003,0
	c2.523,0.008,5.076,0.048,7.586,0.121c0.561,0.016,1.003,0.485,0.987,1.046C294.207,93.091,293.755,93.527,293.207,93.527z
	 M308.296,94.361c-0.028,0-0.056-0.001-0.084-0.004c-2.482-0.204-5.009-0.377-7.511-0.515c-0.561-0.031-0.991-0.511-0.96-1.072
	c0.031-0.561,0.513-0.99,1.072-0.96c2.52,0.139,5.066,0.314,7.565,0.519c0.56,0.046,0.976,0.537,0.93,1.097
	C309.264,93.959,308.819,94.361,308.296,94.361z M323.327,96.017c-0.047,0-0.094-0.003-0.141-0.01
	c-2.458-0.342-4.973-0.655-7.475-0.93c-0.558-0.061-0.961-0.564-0.9-1.122c0.061-0.558,0.562-0.959,1.122-0.9
	c2.521,0.277,5.055,0.592,7.533,0.937c0.556,0.077,0.945,0.591,0.867,1.147C324.262,95.649,323.826,96.017,323.327,96.017z
	 M339.23,97.735c-0.098,0.482-0.522,0.816-0.996,0.816c-0.067,0-0.135-0.007-0.203-0.02c-2.423-0.49-4.914-0.953-7.403-1.375
	c-0.554-0.094-0.927-0.619-0.833-1.173c0.094-0.554,0.62-0.926,1.173-0.833c2.51,0.426,5.022,0.893,7.466,1.387
	C338.986,96.648,339.342,97.184,339.23,97.735z M353.922,101.309c-0.125,0.451-0.534,0.746-0.98,0.746
	c-0.09,0-0.181-0.012-0.272-0.037c-2.37-0.656-4.822-1.286-7.287-1.872c-0.547-0.13-0.884-0.678-0.754-1.225
	c0.13-0.547,0.679-0.883,1.225-0.754c2.489,0.592,4.966,1.228,7.36,1.891C353.755,100.207,354.072,100.768,353.922,101.309z
	 M368.3,105.998c-0.15,0.413-0.54,0.669-0.956,0.669c-0.116,0-0.233-0.02-0.348-0.062c-2.274-0.828-4.588-1.623-6.879-2.361
	l-0.239-0.077c-0.535-0.171-0.83-0.743-0.659-1.278c0.171-0.535,0.744-0.83,1.279-0.659l0.243,0.078
	c2.315,0.746,4.654,1.549,6.952,2.386C368.221,104.886,368.493,105.47,368.3,105.998z M374.017,109.319
	c-0.52-0.213-0.769-0.807-0.556-1.326c0.213-0.52,0.806-0.769,1.326-0.556c2.346,0.96,4.695,1.975,6.982,3.017
	c0.511,0.233,0.736,0.836,0.503,1.347c-0.171,0.374-0.54,0.595-0.926,0.595c-0.141,0-0.285-0.03-0.421-0.092
	C378.662,111.273,376.338,110.268,374.017,109.319z M381.847,323.475c-0.721,0.067-3.42,0.006-4.342,0.31
	c-0.922,0.304-4.195-1.918-4.788-2.541c-0.593-0.623-1.789-2.345-1.789-2.345l-2.872-1.844l3.05-2.911l2.035,1.307
	c0,0,1.449-0.841,2.821-0.432c1.373,0.409,2.677,1.319,3.706,1.471c1.029,0.152,1.731-0.281,1.93,0.088
	c0.199,0.37-0.791,1.382-1.35,1.725s-1.404-0.078-1.988-0.186c-0.584-0.109-0.865,0.065-0.865,0.065s3.124,2.19,3.585,2.302
	c0.461,0.112,2.262,1.08,2.624,1.685C383.968,322.775,382.568,323.408,381.847,323.475z M392.854,271.558
	c-0.331,0.602-1.814,2.688-2.066,3.573c-0.252,0.886-3.737,2.272-4.542,2.406c-0.805,0.134-2.793,0.156-2.793,0.156l-1.769,0.757
	l-1.239-3.696l1.479-0.633c0,0,0.111-1.584,1.162-2.444c1.051-0.86,2.46-1.4,3.127-2.127c0.667-0.727,0.7-1.509,1.096-1.468
	c0.396,0.041,0.664,1.356,0.636,1.978c-0.028,0.622-0.808,1.061-1.204,1.461c-0.396,0.401-0.41,0.714-0.41,0.714
	s3.381-1.287,3.714-1.59c0.333-0.302,2.051-1.202,2.719-1.164C393.433,269.521,393.185,270.956,392.854,271.558z M395.732,118.715
	c-0.187,0.332-0.532,0.52-0.888,0.52c-0.169,0-0.339-0.042-0.497-0.13c-2.16-1.212-4.394-2.403-6.642-3.541
	c-0.501-0.254-0.702-0.866-0.448-1.367c0.254-0.501,0.865-0.702,1.367-0.448c2.273,1.151,4.534,2.356,6.719,3.582
	C395.833,117.605,396.007,118.225,395.732,118.715z M448.953,177.496c0.537-0.167,1.106,0.132,1.274,0.669
	c0.756,2.428,1.402,4.92,1.918,7.405c0.114,0.55-0.239,1.088-0.789,1.203c-0.07,0.014-0.139,0.021-0.208,0.021
	c-0.472,0-0.895-0.33-0.995-0.81c-0.503-2.421-1.132-4.848-1.868-7.214C448.117,178.233,448.417,177.663,448.953,177.496z
	 M400.823,122.931c-0.477-0.297-0.623-0.924-0.326-1.401c0.297-0.477,0.924-0.623,1.401-0.326c2.171,1.35,4.313,2.755,6.367,4.175
	c0.462,0.319,0.578,0.953,0.258,1.415c-0.197,0.286-0.515,0.439-0.837,0.439c-0.2,0-0.401-0.059-0.578-0.181
	C405.08,125.65,402.966,124.264,400.823,122.931z M409.67,265.525c-2.306,0.767-3.704,1.079-3.762,1.092
	c-0.074,0.016-0.147,0.024-0.22,0.024c-0.467,0-0.887-0.323-0.992-0.798c-0.121-0.548,0.225-1.091,0.773-1.212
	c0.013-0.003,1.364-0.305,3.559-1.035c0.533-0.178,1.109,0.111,1.286,0.644C410.491,264.772,410.203,265.348,409.67,265.525z
	 M412.987,130.053c0.343-0.445,0.982-0.527,1.427-0.184c2.029,1.566,4.014,3.187,5.898,4.819c0.425,0.368,0.471,1.01,0.103,1.435
	c-0.201,0.232-0.484,0.351-0.769,0.351c-0.236,0-0.473-0.082-0.665-0.248c-1.856-1.607-3.81-3.204-5.809-4.746
	C412.727,131.137,412.644,130.498,412.987,130.053z M423.575,259.092c-2.173,1.308-4.453,2.517-6.778,3.594
	c-0.138,0.064-0.284,0.095-0.427,0.095c-0.384,0-0.751-0.219-0.923-0.59c-0.236-0.51-0.015-1.114,0.495-1.35
	c2.258-1.047,4.474-2.222,6.584-3.491c0.481-0.29,1.106-0.134,1.396,0.347C424.211,258.177,424.056,258.802,423.575,259.092z
	 M424.494,141.302c-0.401-0.393-0.407-1.037-0.014-1.438c0.393-0.401,1.037-0.407,1.438-0.014c1.834,1.799,3.605,3.654,5.264,5.516
	c0.374,0.419,0.337,1.062-0.083,1.436c-0.194,0.173-0.436,0.258-0.676,0.258c-0.28,0-0.559-0.115-0.76-0.341
	C428.034,144.892,426.295,143.069,424.494,141.302z M435.716,249.731c-1.799,1.77-3.749,3.466-5.798,5.04
	c-0.185,0.142-0.403,0.211-0.619,0.211c-0.305,0-0.607-0.137-0.807-0.397c-0.342-0.445-0.259-1.084,0.187-1.426
	c1.983-1.524,3.87-3.165,5.61-4.877c0.4-0.394,1.044-0.389,1.438,0.011C436.122,248.693,436.117,249.337,435.716,249.731z
	 M438.744,158.586c-1.33-2.056-2.781-4.11-4.311-6.105c-0.342-0.446-0.258-1.084,0.188-1.426c0.446-0.342,1.084-0.258,1.426,0.188
	c1.563,2.038,3.045,4.137,4.404,6.238c0.305,0.472,0.17,1.101-0.301,1.407c-0.171,0.11-0.362,0.163-0.552,0.163
	C439.265,159.05,438.939,158.887,438.744,158.586z M445.159,237.637c-1.288,2.201-2.742,4.342-4.322,6.361
	c-0.201,0.256-0.5,0.391-0.802,0.391c-0.219,0-0.44-0.07-0.626-0.216c-0.442-0.346-0.521-0.985-0.175-1.428
	c1.524-1.948,2.926-4.013,4.168-6.136c0.284-0.484,0.907-0.648,1.391-0.364C445.28,236.529,445.443,237.152,445.159,237.637z
	 M445.73,171.765c-0.95-2.266-2.027-4.535-3.2-6.743c-0.263-0.496-0.075-1.112,0.421-1.375c0.496-0.263,1.112-0.075,1.375,0.421
	c1.202,2.263,2.305,4.588,3.279,6.911c0.217,0.518-0.027,1.114-0.545,1.331c-0.128,0.054-0.262,0.079-0.393,0.079
	C446.271,172.39,445.894,172.155,445.73,171.765z M451.089,223.492c-0.685,2.489-1.526,4.933-2.5,7.264
	c-0.163,0.39-0.541,0.625-0.939,0.625c-0.131,0-0.264-0.025-0.392-0.079c-0.518-0.217-0.763-0.812-0.546-1.331
	c0.941-2.251,1.754-4.613,2.416-7.019c0.149-0.542,0.709-0.86,1.251-0.711C450.92,222.39,451.238,222.95,451.089,223.492z
	 M452.685,215.991c-0.08,0.501-0.512,0.858-1.003,0.858c-0.053,0-0.107-0.004-0.161-0.013c-0.555-0.088-0.933-0.609-0.845-1.164
	c0.394-2.484,0.687-4.982,0.869-7.425c0.042-0.56,0.528-0.978,1.09-0.939c0.56,0.042,0.98,0.53,0.939,1.09
	C453.387,210.898,453.088,213.452,452.685,215.991z M452.803,201.785c-0.005,0-0.01,0-0.015,0c-0.555,0-1.008-0.445-1.017-1.002
	c-0.037-2.492-0.19-4.996-0.456-7.44c-0.061-0.558,0.343-1.06,0.901-1.121c0.558-0.06,1.06,0.343,1.121,0.901
	c0.273,2.507,0.43,5.074,0.468,7.63C453.813,201.315,453.365,201.777,452.803,201.785z M122.31,484.996l0.136-5.397
	c0.282,2.426,2.365,6.343,2.365,6.343S123.375,484.548,122.31,484.996z M122.303,485.267l0.007-0.271l0,0L122.303,485.267z
	 M125.55,425.767l1.573,70.645l-0.404-18.133c-1.158-0.534-2.721-1.02-3.781-0.427c-0.245,0.137-0.391,0.378-0.465,0.69
	l1.332-52.776H125.55z M122.447,479.599L122.447,479.599l0.027-1.056v0L122.447,479.599z"></path>
</svg>